<svg height='100px' width='100px'  fill="#000000" xmlns:dc="http://purl.org/dc/elements/1.1/" xmlns:cc="http://creativecommons.org/ns#" xmlns:rdf="http://www.w3.org/1999/02/22-rdf-syntax-ns#" xmlns:svg="http://www.w3.org/2000/svg" xmlns="http://www.w3.org/2000/svg" xmlns:sodipodi="http://sodipodi.sourceforge.net/DTD/sodipodi-0.dtd" xmlns:inkscape="http://www.inkscape.org/namespaces/inkscape" version="1.1" x="0px" y="0px" viewBox="0 0 100 100"><g transform="translate(0,-952.36218)"><path style="text-indent:0;text-transform:none;direction:ltr;block-progression:tb;baseline-shift:baseline;color:#000000;enable-background:accumulate;" d="m 81.645996,961.36221 c -0.36871,0.073 -0.68239,0.379 -0.76936,0.7502 -0.77099,3.1325 -0.44136,6.1806 0.21542,8.4713 -0.41787,-0.3019 -0.84522,-0.613 -1.29253,-0.9066 -0.80858,-3.6235 -4.92056,-6.0903 -7.84752,-6.8144 -3.13576,-0.5799 -6.49448,-0.7774 -9.26314,0.5939 -0.25458,0.1307 -0.41616,0.3852 -0.4758,0.6655 -0.0791,0.3718 0.0212,0.7891 0.32192,1.0224 2.19898,1.6752 5.63604,2.8778 8.86308,3.7511 2.33767,0.4932 6.32728,1.8363 8.18604,1.1566 0.31947,0.3783 0.6249,0.766 0.954,1.1567 -1.57178,-0.6646 -3.37693,-0.8797 -4.92392,-0.563 -1.86764,0.3971 -3.45259,1.2453 -5.78563,1.7192 -0.54858,0.098 -0.93444,0.7412 -0.76936,1.2816 0.31262,1.0023 1.01946,1.8046 1.90803,2.282 0.88855,0.4774 1.94069,0.6591 3.10823,0.6252 3.32287,-0.4286 6.09633,-1.5823 8.40145,-2.9696 1.41338,1.8311 2.81646,3.9027 4.0007,6.4705 -3.46035,-1.573 -6.53106,-1.3404 -9.75554,-0.6876 -0.37499,0.075 -0.6189,0.4115 -0.69443,0.7854 -0.0812,0.4021 0.0322,0.8476 0.38668,1.0589 3.1493,1.9 7.62952,3.3926 11.44815,2.4381 0.62926,1.9606 1.10845,4.1998 1.44639,6.7208 -1.02459,-0.6731 -2.05762,-1.4007 -3.13899,-2.0945 -2.39384,-1.5355 -5.05045,-2.907 -8.27837,-2.907 -3.28261,0 -6.61274,1.589 -9.54012,3.6573 -2.399,1.6953 -4.39584,3.6691 -5.93948,5.5015 -2.60297,-6.7077 -6.71732,-10.6855 -11.69434,-12.9723 -5.3666,-2.4661 -11.59186,-3.1917 -17.97235,-4.1888 -1.19087,0.072 -1.309,1.2955 -0.73858,1.7817 3.79733,2.8929 5.35206,5.701 6.03181,8.0023 0.53898,1.8249 0.4981,3.1992 0.46162,4.3139 -15.15042,1.8713 -24.61015,1.7514 -31.0207599,-1.9694 -0.6159699,-0.3637 -1.5290499,0.216 -1.4771799,0.9377 0.52277,7.4341 5.7080398,14.13779 12.2790498,18.84919 6.02673,4.3213 13.22205,6.8829 19.51107,6.8146 -0.93752,1.841 -2.18916,3.9229 -3.04668,5.6265 l -18.49551,13.8477 c -0.54762,0.4227 -0.41899,1.4493 0.21542,1.7192 l 14.77179,6.0018 c 0.41931,0.1764 0.95107,0.01 1.20021,-0.3751 l 7.57054,-11.5345 c 12.07303,0.4401 20.52286,-0.8075 26.4969,-4.939 6.07199,-4.1992 9.36407,-11.26 11.35582,-21.8812 0.38344,-1.9476 2.88245,-4.70129 5.97026,-6.75199 1.90795,-1.2671 4.03883,-2.2547 5.87795,-2.8445 0.0863,1.9688 0.11381,4.0959 0,6.40809 l 2.95435,-4.00119 c -0.0669,-1.0191 -0.15782,-2.0189 -0.24619,-2.9697 0.67268,-0.01 1.1473,-0.461 1.24005,-0.8409 0.0878,-0.4606 -0.19148,-0.9651 -0.62457,-1.1281 -0.2854,-0.116 -0.57872,-0.237 -0.86168,-0.3751 -0.44722,-3.6775 -1.12088,-6.8154 -2.09267,-9.5653 4.55095,-4.2389 4.87434,-9.9981 2.33887,-12.8162 -0.22685,-0.2563 -0.59038,-0.3794 -0.92323,-0.3126 -0.24148,0.041 -0.46585,0.1782 -0.6155,0.3751 -1.91382,2.5837 -2.76198,5.1018 -3.04668,7.9398 -1.10513,-1.8081 -2.44867,-3.4174 -4.06225,-4.9077 1.93059,-2.1165 2.31464,-4.4035 1.78493,-6.3142 -0.55274,-1.994 -1.89685,-3.573 -2.98513,-4.7827 -0.24378,-0.3314 -0.62974,-0.2482 -0.92324,-0.3126 z m -10.12483,3.4699 c 2.27837,0.5339 4.29224,1.5719 5.50864,3.1571 -1.3847,-0.2089 -2.86583,-0.4163 -5.13935,-1.0315 -2.15093,-0.5822 -4.20689,-1.3931 -5.97026,-2.2507 1.74419,-0.4824 3.86801,-0.273 5.60097,0.1251 z m 10.98651,-0.063 c 0.50826,0.7236 0.92642,1.4852 1.13867,2.2506 0.26366,0.9512 0.0608,1.9324 -0.49239,3.0009 -0.44833,-1.4855 -0.78888,-3.1832 -0.64628,-5.2515 z m 9.04773,7.5959 c 0.62984,1.8227 0.31216,4.5851 -1.6926,7.2209 -0.18127,-2.6638 0.46357,-5.2205 1.6926,-7.2209 z m -12.2175,0.5945 c -2.03102,0.9474 -3.92576,1.5849 -5.324,1.6255 -0.97281,0.042 -1.72757,-0.1994 -2.36965,-0.6877 1.65099,-0.483 3.24045,-1.0416 4.37,-1.2817 1.14993,-0.3169 2.32304,-0.035 3.32365,0.3439 z m -43.48446,6.9392 c 5.11737,0.7948 10.00386,1.6355 14.06397,3.5009 4.97366,2.2855 8.90497,6.0044 11.29427,13.2852 0.23913,0.6615 1.2583,0.831 1.6926,0.2814 1.3984,-1.894 3.81984,-4.3506 6.55498,-6.2832 2.73515,-1.9326 5.80613,-3.3134 8.43223,-3.3134 2.6808,0 4.94812,1.1292 7.23203,2.5945 1.45108,0.9308 2.99133,2.0801 4.5286,2.9993 -1.91949,0.8783 -5.09707,2.0118 -6.89824,3.1899 -2.83521,1.9681 -6.17335,4.81359 -6.83198,8.03329 -1.94739,10.3848 -5.02565,16.7967 -10.5249,20.5997 -5.49925,3.8032 -13.6549,5.0919 -25.88141,4.595 -0.33518,-0.016 -0.67332,0.1557 -0.86168,0.4377 l -7.41668,11.3158 -12.40215,-5.0327 17.29531,-12.9413 c 0.12715,-0.088 0.2335,-0.2069 0.30774,-0.3439 0.92607,-1.8811 2.8869,-4.8875 3.87759,-7.2833 0.25195,-0.6274 -0.31949,-1.4255 -0.98478,-1.3754 -5.95402,0.5652 -13.66363,-2.0535 -19.91114,-6.5331 -5.70787,-4.0926 -10.0012099,-9.71179 -11.0788499,-15.66069 7.1023299,3.285 16.6783099,3.2277 31.2669599,1.3754 0.46324,-0.059 0.85073,-0.4949 0.8617,-0.9691 0,-0.8336 0.27426,-3.1141 -0.52318,-5.8141 -1.10519,-2.7259 -2.50038,-5.0002 -4.09299,-6.6579 z m 49.91634,2.0318 c -1.8017,0.042 -3.80068,-0.4206 -5.63174,-1.1253 1.98716,-0.2476 4.23084,0.4563 5.63174,1.1253 z m -5.87794,7.4396 c -1.08777,0 -1.96957,0.6718 -1.96957,1.5005 0,0.8286 0.8818,1.5004 1.96957,1.5004 1.08777,0 1.96957,-0.6718 1.96957,-1.5004 0,-0.8287 -0.8818,-1.5005 -1.96957,-1.5005 z" fill="#000000" fill-opacity="1" stroke="none" marker="none" visibility="visible" display="inline" overflow="visible"></path></g></svg>