<svg height='100px' width='100px'  fill="#000000" xmlns="http://www.w3.org/2000/svg" xmlns:xlink="http://www.w3.org/1999/xlink" version="1.1" x="0px" y="0px" viewBox="0 0 100 100" enable-background="new 0 0 100 100" xml:space="preserve"><path d="M87.632,70.371c0.085-3.535-10.88-11.129-15.47-14.15c-5.049-2.443-16.419-7.9-18.867-8.738c0,0,12.053,3.222,19.191,8.257  c3.365,0.799,1.31-2.185,1.31-2.185l0.852-0.852l-12.134-7.557C51.657,33.438,41.865,31.948,41.865,31.948  c-4.79-1.384-9.792-7.983-9.792-7.983c-6.918-11.92-17.562-4.577-17.562-4.577c-7.982,2.129-4.257,6.918-4.257,6.918  c-0.426-2.448,3.299-1.597,3.299-1.597c3.935,2.108,3.726,5.96,3.726,5.96c-2.448,2.661-0.319,8.621-0.319,8.621  c5.641,12.453,13.73,17.668,13.73,17.668c3.299,2.98,2.554,9.898,2.554,9.898l-1.472,3.524l-15.659-4.079l-1.287,4.942l7.742,2.018  l-6.265,5.712l3.443,3.775l8.719-7.953l32.767,8.537l1.287-4.943l-20.762-5.408l2.749-7.188c0.289-0.321,0.593-0.637,0.937-0.937  l-0.011-0.003c3.915,0.674,10.057,0.938,10.057,0.938c5.642,5.96,14.476,4.789,14.476,4.789  c16.497,12.879,17.029,10.005,17.029,10.005c3.832-0.958-9.26-12.666-9.26-12.666l0.413,0.222  c-2.508-2.468-10.773-9.668-26.089-14.454c0,0,18.851,3.286,26.496,14.674l9.078,4.881C93.273,76.012,87.632,70.371,87.632,70.371z   M18.641,22.315c0,0,1.171-2.554,3.406,0C22.046,22.315,19.812,24.337,18.641,22.315z M41.014,67.068l-2.216,5.144l-4.061-1.058  l2.338-6.637l4.257-0.609L41.014,67.068z"></path></svg>